<svg data-v-0dd9719b="" version="1.0" xmlns="http://www.w3.org/2000/svg" xmlns:xlink="http://www.w3.org/1999/xlink" width="100%" height="100%" viewBox="0 0 340.000000 250.000000" preserveAspectRatio="xMidYMid meet" color-interpolation-filters="sRGB" style="margin: auto;"> <rect data-v-0dd9719b="" x="0" y="0" width="100%" height="100%" fill="#fff" fill-opacity="1" class="background"></rect> <rect data-v-0dd9719b="" x="0" y="0" width="100%" height="100%" fill="url(#watermark)" fill-opacity="1" class="watermarklayer"></rect> <g data-v-0dd9719b="" fill="#333" class="icon-text-wrapper icon-svg-group iconsvg" transform="translate(55.903282165527344,92.1944694519043)"><g class="iconsvg-imagesvg" transform="translate(0,0)"><g><rect fill="#333" fill-opacity="0" stroke-width="2" x="0" y="0" width="59.99999999999999" height="65.61105765024932" class="image-rect"></rect> <svg x="0" y="0" width="59.99999999999999" height="65.61105765024932" filtersec="colorsb1732356104" class="image-svg-svg primary" style="overflow: visible;"><svg xmlns="http://www.w3.org/2000/svg" viewBox="-0.03696563467383385 0.028457017615437508 91.38286590576172 99.9288330078125"><path d="M8.94 1.34a15.59 15.59 0 0 1 9.36-1c2.81.52 5.24 2.11 7.7 3.5C28 5 30 6.1 32 7.35c-1.21 1.91-2.84 3.49-4.19 5.28a61.16 61.16 0 0 0 3.49 78.73c.36.38.73.91.48 1.44-1.68 1.17-3.57 2-5.31 3-2.46 1.34-4.78 3.07-7.56 3.7A15.43 15.43 0 0 1 7.66 98 15.22 15.22 0 0 1 0 85.08V17.89a26.35 26.35 0 0 1 .28-5.47A15 15 0 0 1 8.94 1.34z" fill="#0079d4"></path><path d="M28.32 45.07A47.67 47.67 0 0 1 44 14.18c4 2.06 7.79 4.53 11.77 6.64 2.72 1.62 5.51 3.09 8.21 4.75-1.5 1.29-3.34 2.1-4.84 3.39a27.33 27.33 0 0 0-9.66 16.7A27 27 0 0 0 60.5 72a31.12 31.12 0 0 1 3.5 2.42c-6.63 3.83-13.27 7.67-20 11.31a47.51 47.51 0 0 1-15.14-27c-.86-4.48-.61-9.1-.54-13.66z" fill="#00a0f9"></path><path d="M74.32 34.91a15.22 15.22 0 0 1 10.21 2.44A14.25 14.25 0 0 1 91 46.84a15.26 15.26 0 0 1-1.78 11 21.25 21.25 0 0 1-3.89 4.42c-1.91 1.8-4.6 2.31-7.09 2.79a15.24 15.24 0 0 1-16.86-11.76 16.4 16.4 0 0 1 .68-9c1.85-5.16 6.99-8.59 12.26-9.38z" fill="#5bd3fb"></path></svg></svg> <!----></g></g> <g transform="translate(67,9.10927963256836)"><g data-gra="path-name" fill-rule="" class="tp-name iconsvg-namesvg" transform="translate(0,0)"><g transform="scale(1)"><g><path d="M11.7-17.91L11.7-17.46C11.7-16.61 12.2-16.11 13.05-16.11L18.36-16.11C18.95-16.11 19.26-15.88 19.26-15.57 19.26-15.21 18.95-14.98 18.36-14.98L13.46-14.98C12.6-14.98 12.06-14.54 12.06-13.63L12.06-13C12.06-12.15 12.55-11.65 13.41-11.65L18.36-11.65C18.95-11.65 19.26-11.47 19.26-11.21 19.26-10.93 18.95-10.71 18.36-10.71L12.29-10.71C11.43-10.71 10.93-10.21 10.93-9.36L10.93-1.03C10.93-0.18 11.43 0.32 12.29 0.32L35.59 0.32C36.45 0.32 36.95-0.18 36.95-1.03L36.95-9.36C36.95-10.21 36.45-10.71 35.59-10.71L28.75-10.71C28.17-10.71 27.86-10.89 27.86-11.21 27.86-11.47 28.17-11.65 28.75-11.65L35.32-11.65C36.18-11.65 36.67-12.15 36.67-13L36.67-15.21C36.67-15.79 36.99-16.11 37.48-16.11 37.98-16.11 38.25-16.61 38.25-17.46L38.25-17.91C38.25-18.77 37.75-19.26 36.9-19.26 36.77-19.26 36.67-19.57 36.67-20.16L36.67-22.5C36.67-23.36 36.18-23.85 35.32-23.85L28.75-23.85C28.17-23.85 27.86-24.16 27.86-24.66 27.86-25.15 28.17-25.47 28.75-25.47L37.84-25.47C38.7-25.47 39.2-25.96 39.2-26.82L39.2-28.26C39.2-29.11 38.7-29.61 37.84-29.61L28.84-29.61C28.26-29.61 27.99-29.92 27.99-30.51L27.99-30.78C27.99-31.5 27.49-31.95 26.64-31.95L19.84-31.95C18.68-31.95 18.31-31.14 19.13-30.29 19.17-30.24 19.17-30.15 19.17-29.92 19.17-29.74 18.86-29.61 18.27-29.61L4.18-29.61C3.1-29.61 2.7-28.89 3.28-27.99L3.65-27.45C3.87-27.04 3.92-26.68 3.92-26.28L2.61-1.03C2.56-0.18 3.06 0.36 3.92 0.36L8.69 0.36C9.54 0.36 10.04-0.04 10.08-0.94L11.34-24.61C11.38-25.15 11.7-25.47 12.24-25.47L18.36-25.47C18.95-25.47 19.26-25.15 19.26-24.66 19.26-24.16 18.95-23.85 18.36-23.85L13.41-23.85C12.55-23.85 12.06-23.36 12.06-22.5L12.06-21.82C12.06-20.97 12.55-20.47 13.41-20.47L18.36-20.47C18.9-20.47 19.21-20.25 19.26-19.89 19.26-19.53 18.95-19.26 18.36-19.26L13.05-19.26C12.2-19.26 11.7-18.77 11.7-17.91ZM19.04-3.82L19.04-6.48C19.04-7.06 19.35-7.38 19.93-7.38L27.95-7.38C28.53-7.38 28.84-7.06 28.84-6.48L28.84-3.82C28.84-3.24 28.53-2.92 27.95-2.92L19.93-2.92C19.35-2.92 19.04-3.24 19.04-3.82ZM30.29-19.89C30.29-19.48 29.97-19.26 29.38-19.26L28.75-19.26C28.17-19.26 27.86-19.48 27.86-19.89 27.86-20.25 28.13-20.47 28.71-20.47L29.38-20.47C29.97-20.47 30.29-20.25 30.29-19.89ZM27.86-15.57C27.86-15.93 28.17-16.11 28.75-16.11L29.43-16.11C29.97-16.11 30.29-15.93 30.33-15.57 30.33-15.21 30.02-14.98 29.43-14.98L28.75-14.98C28.17-14.98 27.86-15.21 27.86-15.57ZM50.85-26.01L44.95-26.01C43.92-26.01 43.52-25.38 43.96-24.43L44.23-23.85C44.41-23.49 44.5-23.13 44.5-22.72L44.5-1.71C44.5-0.85 45-0.36 45.85-0.36L79.06-0.36C79.92-0.36 80.41-0.85 80.41-1.71L80.41-24.66C80.41-25.52 79.92-26.01 79.06-26.01L73.17-26.01C72.13-26.01 71.73-25.38 72.18-24.43L72.45-23.85C72.63-23.49 72.72-23.13 72.72-22.72L72.72-6.39C72.72-5.8 72.41-5.49 71.82-5.49L67.63-5.49C67.05-5.49 66.73-5.8 66.73-6.39L66.73-30.64C66.73-31.5 66.24-31.99 65.38-31.99L58.41-31.99C57.33-31.99 56.92-31.27 57.51-30.38L57.87-29.79C58.09-29.38 58.19-29.11 58.19-28.71L58.19-6.39C58.19-5.8 57.87-5.49 57.28-5.49L53.1-5.49C52.52-5.49 52.2-5.8 52.2-6.39L52.2-24.66C52.2-25.52 51.7-26.01 50.85-26.01ZM120.69-29.88L108.41-29.88C107.82-29.88 107.5-30.2 107.5-30.78L107.5-30.96C107.5-31.63 107.01-32.04 106.16-32.04L99.18-32.04C98.1-32.04 97.69-31.32 98.28-30.42L98.64-29.83C98.86-29.43 98.95-29.16 98.95-28.75L98.95-24.34C98.95-23.76 98.64-23.45 98.05-23.45L88.33-23.45C87.48-23.45 86.98-22.95 86.98-22.09L86.98-11.12C86.98-10.26 87.48-9.76 88.33-9.76L119.75-9.76C120.6-9.76 121.09-10.26 121.09-11.12L121.09-22.09C121.09-22.95 120.6-23.45 119.75-23.45L108.41-23.45C107.82-23.45 107.5-23.76 107.5-24.34L107.5-24.66C107.5-25.24 107.82-25.56 108.41-25.56L120.69-25.56C121.54-25.56 122.04-26.05 122.04-26.91L122.04-28.53C122.04-29.38 121.54-29.88 120.69-29.88ZM95.58-14.94L95.58-18.27C95.58-18.86 95.89-19.17 96.48-19.17L111.78-19.17C112.36-19.17 112.68-18.86 112.68-18.27L112.59-14.94C112.59-14.35 112.27-14.04 111.69-14.04L96.48-14.04C95.89-14.04 95.58-14.35 95.58-14.94ZM114.03-1.08L112.86-6.84C112.68-7.65 112.23-8.05 111.42-8.05L106.42-8.05C105.48-8.05 105.07-7.47 105.25-6.57L106.42-0.81C106.6-0.04 107.05 0.4 107.86 0.4L112.86 0.4C113.8 0.4 114.21-0.18 114.03-1.08ZM123.44-1.08L122.26-6.84C122.08-7.65 121.63-8.05 120.82-8.05L115.83-8.05C114.88-8.05 114.48-7.47 114.66-6.57L115.83-0.81C116.01-0.04 116.46 0.4 117.27 0.4L122.26 0.4C123.21 0.4 123.61-0.18 123.44-1.08ZM93.19-0.81L94.36-6.57C94.55-7.47 94.14-8.05 93.19-8.05L88.2-8.05C87.39-8.05 86.94-7.65 86.76-6.84L85.59-1.08C85.41-0.18 85.81 0.4 86.76 0.4L91.75 0.4C92.56 0.4 93.02-0.04 93.19-0.81ZM104.63-1.08L103.45-6.84C103.27-7.65 102.82-8.05 102.02-8.05L97.02-8.05C96.08-8.05 95.67-7.47 95.85-6.57L97.02-0.81C97.2-0.04 97.65 0.4 98.46 0.4L103.45 0.4C104.4 0.4 104.8-0.18 104.63-1.08ZM127.57-5.13L140.49-9.67C141.12-9.9 141.52-9.86 141.52-9.58 141.52-9.31 141.3-9.04 140.8-8.87L127.17-4.14C126.45-3.87 126.09-3.38 126.09-2.61L126.09-1.3C126.09-0.32 126.72 0.14 127.62-0.18L140.44-4.46C141.07-4.68 141.48-4.37 141.48-3.73L141.48-0.94C141.48-0.09 141.97 0.4 142.83 0.4L146.97 0.4C147.82 0.4 148.32-0.09 148.32-0.94L148.32-6.08C148.32-6.84 148.86-7.11 149.44-6.57L156.19-0.32C156.73 0.18 157.19 0.32 157.86 0.32L161.23 0.32C162.45 0.32 162.81-0.49 161.86-1.35L159.48-3.46C158.85-4.05 158.8-4.59 159.39-4.59 160.11-4.59 160.6-4.91 161.01-5.49L162.72-8.19C163.3-9.09 162.9-9.81 161.82-9.81L157.59-9.81C156.87-9.81 156.38-9.54 155.97-8.91L155.56-8.23C155.25-7.74 154.8-7.6 154.3-8.05L152.05-10.04C151.56-10.48 151.06-10.66 150.39-10.66L149.26-10.66C148.68-10.66 148.32-10.8 148.36-11.03 148.36-11.29 148.68-11.38 149.22-11.38L162.45-11.61C163.3-11.61 163.8-12.06 163.8-12.96L163.8-13.81C163.8-14.67 163.3-15.16 162.45-15.16L127.44-14.49C126.58-14.49 126.09-13.95 126.09-13.09L126.09-12.38C126.09-11.52 126.58-11.03 127.44-11.03L129.51-11.07C130.27-11.07 130.41-10.3 129.69-10.08L127.17-9.27C126.45-9.04 126.04-8.5 126.04-7.74L126.04-6.21C126.04-5.22 126.63-4.81 127.57-5.13ZM144.04-20.52C143.5-20.47 143.23-20.84 143.23-21.42L143.23-27.31C143.23-27.9 143.55-28.21 144.04-28.21 144.54-28.21 144.85-28.71 144.85-29.56L144.85-29.83C144.85-30.69 144.36-31.18 143.5-31.18L127.44-31.18C126.58-31.18 126.09-30.69 126.09-29.83L126.09-29.56C126.09-28.71 126.58-28.21 127.44-28.21 127.66-28.21 127.75-27.9 127.75-27.31L127.71-20.7C127.71-20.11 127.39-19.8 126.9-19.8 126.4-19.8 126.09-19.26 126.09-18.4L126.09-17.55C126.09-16.7 126.63-16.16 127.48-16.2L136.26-16.56C136.84-16.61 137.16-16.43 137.16-16.2 137.16-15.93 137.66-15.75 138.51-15.75L141.84-15.75C142.38-15.75 142.78-15.88 143.01-16.16 143.32-16.61 143.46-16.88 143.95-16.92L144.04-16.92C144.58-16.96 144.85-17.41 144.85-18.27L144.85-19.17C144.85-20.02 144.54-20.56 144.04-20.52ZM145.8-25.79C145.8-25.33 145.98-24.97 146.52-24.48L150.12-21.29C150.57-20.88 150.52-20.38 150.12-19.98L147.55-17.41C146.7-16.56 147.01-15.75 148.23-15.75L152.41-15.75C153.09-15.75 153.58-15.93 154.08-16.43L154.13-16.47C154.53-16.88 154.98-16.92 155.38-16.52L155.52-16.38C156.06-15.88 156.51-15.75 157.19-15.75L161.19-15.75C162.4-15.75 162.76-16.56 161.86-17.41L158.98-20.02C158.58-20.43 158.53-20.93 158.94-21.33L163.03-25.47C163.53-25.96 163.71-26.46 163.71-27.13L163.71-29.79C163.71-30.64 163.21-31.14 162.36-31.14L147.1-31.14C146.25-31.14 145.75-30.64 145.75-29.79L145.75-28.62C145.75-27.77 146.25-27.27 147.1-27.27L155.83-27.27C156.64-27.27 156.82-26.68 156.28-26.14L155.02-24.88C154.62-24.48 154.17-24.48 153.76-24.88L152.82-25.74C152.32-26.23 151.83-26.41 151.15-26.41L147.15-26.41C146.29-26.41 145.8-26.19 145.8-25.79ZM134.77-28.21L136.26-28.21C136.84-28.21 137.16-27.99 137.16-27.58 137.16-27.18 136.84-26.91 136.26-26.91L134.77-26.91C134.19-26.91 133.88-27.18 133.88-27.58 133.88-27.99 134.19-28.21 134.77-28.21ZM134.77-24.39L136.26-24.39C136.84-24.39 137.16-24.21 137.16-23.94 137.16-23.67 136.84-23.49 136.26-23.49L134.77-23.49C134.19-23.49 133.88-23.67 133.88-23.94 133.88-24.21 134.19-24.39 134.77-24.39ZM134.77-20.97L136.26-20.97C136.84-20.97 137.16-20.84 137.16-20.61 137.16-20.38 136.84-20.2 136.26-20.16L134.82-20.11C134.23-20.07 133.83-20.2 133.88-20.52 133.88-20.79 134.23-20.97 134.77-20.97Z" transform="translate(-2.6065728664398193, 32.040000915527344)"></path></g> <!----> <!----> <!----> <!----> <!----> <!----> <!----></g></g> <g data-gra="path-slogan" fill-rule="" class="tp-slogan iconsvg-slogansvg" fill="#333" transform="translate(24.701717376708984,38.44000244140625)"><!----> <!----> <g transform="scale(1, 1)"><g transform="scale(1)"><path d="M3.09-7.59L0.19-7.59L0.19-8.58L7.13-8.58L7.13-7.59L4.22-7.59L4.22 0L3.09 0L3.09-7.59ZM13.83 0L12.98-2.48L9.52-2.48L8.63 0L7.45 0L10.69-8.58L12-8.58L15.09 0L13.83 0ZM11.25-7.31L9.89-3.52L12.56-3.52L11.30-7.31L11.25-7.31ZM17.53-8.58L21.84-1.64L21.84-8.58L22.97-8.58L22.97 0L21.66 0L17.30-6.94L17.25-6.94L17.25 0L16.13 0L16.13-8.58L17.53-8.58ZM31.17-3.61L28.55-3.61L28.55-4.59L32.30-4.59L32.30 0L31.55 0L31.27-1.08Q30.28 0.09 28.45 0.14L28.45 0.14Q26.72 0.14 25.78-0.75L25.78-0.75Q24.38-2.06 24.42-4.36L24.42-4.36Q24.75-8.63 28.50-8.81L28.50-8.81Q31.69-8.63 32.16-6L32.16-6L31.03-6Q30.56-7.78 28.45-7.83L28.45-7.83Q25.78-7.64 25.64-4.31L25.64-4.31Q25.64-0.75 28.50-0.75L28.50-0.75Q29.53-0.75 30.28-1.31L30.28-1.31Q31.22-2.06 31.17-3.61L31.17-3.61ZM40.36-6.09L40.36-6.09L39.28-6.09Q39.19-7.73 37.13-7.83L37.13-7.83Q35.20-7.78 35.20-6.33L35.20-6.33Q35.20-5.39 36.23-5.25L36.23-5.25L38.67-4.69Q40.59-4.22 40.59-2.34L40.59-2.34Q40.55 0.05 37.22 0.14L37.22 0.14Q35.39 0.14 34.64-0.61L34.64-0.61Q33.70-1.31 33.75-2.77L33.75-2.77L34.88-2.77Q34.92-0.80 37.22-0.75L37.22-0.75Q39.47-0.80 39.52-2.20L39.52-2.20Q39.70-3.38 37.64-3.75L37.64-3.75L35.86-4.13Q34.03-4.64 34.03-6.19L34.03-6.19Q34.17-8.72 37.03-8.81L37.03-8.81Q40.27-8.81 40.36-6.09ZM43.22-5.06L47.72-5.06L47.72-8.58L48.89-8.58L48.89 0L47.72 0L47.72-3.98L43.22-3.98L43.22 0L42.05 0L42.05-8.58L43.22-8.58L43.22-5.06ZM56.34 0L55.50-2.48L52.03-2.48L51.14 0L49.97 0L53.20-8.58L54.52-8.58L57.61 0L56.34 0ZM53.77-7.31L52.41-3.52L55.08-3.52L53.81-7.31L53.77-7.31ZM60.05-8.58L64.36-1.64L64.36-8.58L65.48-8.58L65.48 0L64.17 0L59.81-6.94L59.77-6.94L59.77 0L58.64 0L58.64-8.58L60.05-8.58ZM74.11 0L70.64 0L70.64-8.58L74.16-8.58Q77.63-8.39 77.77-4.41L77.77-4.41Q77.58-0.09 74.11 0L74.11 0ZM73.97-7.64L71.81-7.64L71.81-0.98L74.06-0.98Q76.50-1.13 76.59-4.31L76.59-4.31Q76.55-7.55 73.97-7.64L73.97-7.64ZM79.41-8.58L80.58-8.58L80.58 0L79.41 0L79.41-8.58ZM88.22 0L87.38-2.48L83.91-2.48L83.02 0L81.84 0L85.08-8.58L86.39-8.58L89.48 0L88.22 0ZM85.64-7.31L84.28-3.52L86.95-3.52L85.69-7.31L85.64-7.31ZM91.92-8.58L96.23-1.64L96.23-8.58L97.36-8.58L97.36 0L96.05 0L91.69-6.94L91.64-6.94L91.64 0L90.52 0L90.52-8.58L91.92-8.58ZM98.44-1.92L98.44-2.77L99.52-2.77L99.52-2.16Q99.52-0.75 100.83-0.75L100.83-0.75Q102.19-0.75 102.19-2.25L102.19-2.25L102.19-8.58L103.36-8.58L103.36-2.30Q103.31 0.09 100.88 0.14L100.88 0.14Q98.58 0.09 98.44-1.92L98.44-1.92ZM110.81-3.19L110.81-8.58L111.98-8.58L111.98-3.05Q111.84 0.05 108.47 0.14L108.47 0.14Q105.33 0.05 105.19-2.86L105.19-2.86L105.19-8.58L106.36-8.58L106.36-3.19Q106.41-0.84 108.52-0.80L108.52-0.80Q110.81-0.84 110.81-3.19L110.81-3.19Z" transform="translate(-0.1875, 8.8125)"></path></g></g></g></g></g><defs v-gra="od"></defs></svg>